<svg xmlns="http://www.w3.org/2000/svg" viewBox="0 0 100 100">
  <path fill="#343a40" d="M74.5 47.58c8.27 0 15 6.95 15 15.5s-6.73 15.48-15 15.48h-5.82c-1.18 6.38-5 10.94-9.7 10.94h-19.4c-2.95 0-5.72-1.83-7.6-5.03-1.6-2.73-2.48-6.3-2.48-10.07 0-8.46 4.43-15.1 10.08-15.1h19.4c2.96 0 5.73 1.84 7.6 5.03 1.34 2.3 2.16 5.16 2.4 8.23h5.52c4.96 0 9-4.26 9-9.5 0-5.23-4.04-9.48-9-9.48h-49c-8.27 0-15-6.95-15-15.5s6.73-15.48 15-15.48h5.63c.9-6.98 4.92-12.1 9.9-12.1h19.4c2.94 0 5.7 1.83 7.58 5.03 1.64 2.73 2.5 6.3 2.5 10.07 0 4.23-1.1 8-2.9 10.72-1.82 2.7-4.34 4.37-7.16 4.37h-19.4c-2.96 0-5.73-1.86-7.6-5.05-1.17-2-1.95-4.44-2.3-7.07H25.5c-4.96 0-9 4.25-9 9.5 0 5.2 4.04 9.47 9 9.47h49zm-14.08-12.9c1.62 0 4.08-3.62 4.08-9.08 0-2.67-.6-5.24-1.66-7.04-.76-1.3-1.66-2.06-2.42-2.06-1.63 0-4.1 3.63-4.1 9.1 0 5.46 2.47 9.1 4.1 9.1zM58.98 83.5c1.62 0 4.08-3.63 4.08-9.1 0-2.66-.6-5.23-1.66-7.04-.76-1.28-1.66-2.05-2.42-2.05h-11.3c1.25 2.54 2 5.67 2 9.1 0 3.47-.75 6.6-2 9.1h11.3zm-6.65-67h-11.3c-1.63 0-4.1 3.63-4.1 9.1 0 2.66.6 5.23 1.67 7.03.76 1.3 1.66 2.06 2.42 2.06h11.3c-1.25-2.54-2-5.68-2-9.1 0-3.47.75-6.6 2-9.1zm-8.66 57.9c0-5.47-2.46-9.1-4.1-9.1-1.6 0-4.07 3.63-4.07 9.1 0 2.67.6 5.24 1.66 7.04.76 1.3 1.66 2.06 2.42 2.06 1.63 0 4.1-3.63 4.1-9.1z"/>
  <path fill="#7950f2" d="M84.85 13.83c6.18 6.48 6.17 17.04 0 23.53-.6.62-1.4.93-2.18.93-.75 0-1.5-.3-2.07-.86-1.2-1.14-1.25-3.04-.1-4.24 4-4.2 4-11.04 0-15.25-1.13-1.2-1.1-3.1.1-4.24 1.2-1.12 3.1-1.1 4.25.1z"/>
  <path fill="#845ef7" d="M77.54 18.17c3.9 4.15 3.92 10.9.08 15.05-.6.64-1.4.96-2.2.96-.73 0-1.47-.26-2.04-.8-1.22-1.12-1.3-3.02-.16-4.24 1.72-1.85 1.7-5-.06-6.86-1.13-1.2-1.07-3.1.14-4.24 1.2-1.13 3.1-1.07 4.24.13zm-50.7 59.55c1.13 1.2 1.07 3.1-.14 4.24-.58.54-1.3.8-2.05.8-.8 0-1.6-.3-2.2-.93-3.88-4.15-3.9-10.9-.07-15.05 1.13-1.22 3.03-1.3 4.24-.16 1.22 1.12 1.3 3.02.16 4.24-1.72 1.85-1.7 5 .06 6.86z"/>
  <path fill="#7950f2" d="M19.5 82.04c1.13 1.2 1.1 3.1-.1 4.24-.6.55-1.34.82-2.08.82-.8 0-1.58-.3-2.17-.93-6.18-6.48-6.17-17.04 0-23.53 1.15-1.2 3.05-1.25 4.25-.1 1.2 1.14 1.25 3.04.1 4.24-4 4.2-4 11.05 0 15.26z"/>
</svg>
